<?xml version="1.0" encoding="UTF-8"?>
<svg xmlns="http://www.w3.org/2000/svg" xmlns:xlink="http://www.w3.org/1999/xlink" width="21pt" height="28pt" viewBox="0 0 21 28" version="1.1">
<g id="surface1">
<path style=" stroke:none;fill-rule:evenodd;fill:#4c6cfc;fill-opacity:1;" d="M 8.488281 0.789062 C 8.484375 0.789062 8.480469 0.789062 8.476562 0.789062 C 8.011719 0.796875 7.546875 0.808594 7.082031 0.828125 C 7.195312 1.070312 7.300781 1.308594 7.390625 1.550781 C 7.425781 1.652344 7.34375 1.832031 7.25 1.910156 C 6.574219 2.46875 5.898438 2.984375 4.933594 3.207031 C 4.339844 3.34375 3.75 3.488281 3.164062 3.644531 C 3.167969 3.820312 3.222656 3.996094 3.332031 4.128906 C 3.609375 4.472656 3.523438 4.875 3.164062 5.148438 C 3.132812 5.171875 3.105469 5.195312 3.074219 5.21875 C 2.621094 5.558594 2.164062 5.90625 1.761719 6.296875 C 1.261719 6.78125 0.945312 7.359375 0.828125 8.015625 C 1.363281 7.589844 1.902344 7.167969 2.445312 6.75 C 2.546875 6.671875 2.65625 6.59375 2.777344 6.542969 C 4.695312 5.703125 6.542969 4.765625 8.167969 3.5 C 8.207031 3.523438 8.234375 3.535156 8.257812 3.542969 C 8.28125 3.558594 8.292969 3.5625 8.296875 3.570312 C 8.78125 4.46875 8.773438 4.472656 8.320312 4.792969 C 8.226562 4.855469 8.113281 4.9375 7.984375 5.039062 C 7.351562 5.53125 6.65625 5.917969 5.878906 6.226562 C 4.6875 6.695312 3.511719 7.1875 2.332031 7.679688 C 1.867188 7.871094 1.402344 8.066406 0.933594 8.261719 C 0.890625 8.277344 0.84375 8.296875 0.789062 8.304688 C 0.78125 8.402344 0.777344 8.5 0.777344 8.601562 C 0.777344 9.128906 0.777344 9.65625 0.777344 10.183594 C 1.277344 9.976562 1.777344 9.769531 2.277344 9.566406 C 2.3125 9.613281 2.347656 9.660156 2.386719 9.707031 C 2.332031 9.746094 2.277344 9.792969 2.226562 9.839844 C 2.113281 9.9375 1.996094 10.039062 1.859375 10.078125 C 1.503906 10.171875 1.140625 10.253906 0.777344 10.328125 C 0.777344 11 0.777344 11.667969 0.777344 12.339844 C 1.125 12.03125 1.46875 11.726562 1.8125 11.417969 C 2.074219 11.175781 2.34375 11.09375 2.710938 11.085938 C 4.265625 11.058594 5.746094 11.375 7.191406 11.824219 C 9.210938 12.457031 11.140625 13.273438 13.015625 14.1875 C 13.738281 14.542969 13.890625 15.042969 13.460938 15.671875 C 13.214844 16.027344 12.964844 16.386719 12.714844 16.742188 C 12.308594 17.320312 11.90625 17.898438 11.515625 18.484375 C 11.324219 18.765625 11.082031 18.90625 10.722656 18.976562 C 10.121094 19.089844 9.523438 19.230469 8.941406 19.394531 C 8.5625 19.503906 8.320312 19.40625 8.03125 19.1875 C 7.964844 19.136719 7.894531 19.085938 7.828125 19.03125 C 6.964844 18.378906 6.101562 17.722656 5.175781 17.152344 C 4.613281 16.804688 3.925781 16.5625 3.253906 16.402344 C 2.414062 16.203125 1.570312 16.179688 0.777344 16.421875 C 0.777344 16.789062 0.777344 17.152344 0.777344 17.515625 C 0.78125 17.9375 0.78125 18.359375 0.78125 18.78125 C 0.90625 18.832031 1.035156 18.886719 1.160156 18.941406 C 2.230469 19.386719 3.300781 19.832031 4.371094 20.277344 C 4.367188 20.308594 4.363281 20.34375 4.359375 20.375 C 4.355469 20.398438 4.355469 20.425781 4.351562 20.449219 C 4.230469 20.480469 4.109375 20.511719 3.988281 20.542969 C 3.738281 20.609375 3.484375 20.675781 3.230469 20.734375 C 3.0625 20.773438 2.890625 20.828125 2.71875 20.882812 C 2.304688 21.015625 1.886719 21.148438 1.542969 21.066406 C 1.253906 20.996094 1.011719 20.773438 0.78125 20.527344 C 0.777344 21.167969 0.777344 21.8125 0.777344 22.453125 C 0.890625 22.472656 0.996094 22.515625 1.054688 22.570312 C 1.917969 23.429688 2.773438 24.296875 3.625 25.167969 C 3.820312 25.371094 4.019531 25.570312 4.21875 25.773438 C 4.222656 25.78125 4.222656 25.792969 4.222656 25.820312 C 4.21875 25.839844 4.21875 25.867188 4.21875 25.90625 C 3.859375 26.058594 3.496094 26.199219 3.125 26.339844 C 3.324219 26.417969 3.535156 26.484375 3.761719 26.535156 C 4.84375 26.773438 5.953125 26.914062 7.058594 27.007812 C 7.929688 27.085938 8.808594 27.09375 9.6875 27.101562 C 9.875 27.101562 10.0625 27.105469 10.25 27.105469 C 10.292969 27.105469 10.335938 27.105469 10.378906 27.105469 C 10.574219 27.054688 10.769531 27 10.96875 26.945312 C 11.410156 26.820312 11.851562 26.699219 12.304688 26.574219 C 12.382812 26.746094 12.457031 26.90625 12.527344 27.066406 C 13 27.050781 13.472656 27.023438 13.941406 26.984375 C 13.941406 26.980469 13.9375 26.972656 13.933594 26.96875 C 13.851562 26.765625 13.769531 26.570312 13.6875 26.378906 C 13.734375 26.351562 13.777344 26.328125 13.820312 26.300781 C 13.972656 26.429688 14.125 26.554688 14.285156 26.6875 C 14.382812 26.765625 14.480469 26.84375 14.582031 26.929688 C 14.949219 26.890625 15.316406 26.851562 15.683594 26.800781 C 15.734375 26.796875 15.785156 26.789062 15.835938 26.78125 C 16.296875 26.722656 16.757812 26.664062 17.207031 26.558594 C 18.949219 26.148438 20.21875 24.550781 20.21875 22.78125 C 20.21875 22.390625 20.21875 21.996094 20.21875 21.605469 C 20.132812 21.910156 20.050781 22.214844 19.972656 22.519531 C 19.890625 22.859375 19.851562 23.207031 19.816406 23.558594 C 19.800781 23.71875 19.78125 23.882812 19.761719 24.046875 C 19.722656 24.054688 19.6875 24.058594 19.652344 24.066406 C 19.636719 24.070312 19.625 24.074219 19.613281 24.074219 C 19.027344 22.890625 18.441406 21.707031 17.851562 20.515625 C 17.679688 20.160156 17.503906 19.808594 17.328125 19.457031 C 17.464844 19.335938 17.597656 19.21875 17.726562 19.105469 C 18.011719 18.847656 18.28125 18.605469 18.582031 18.386719 C 18.992188 18.089844 19.675781 18.0625 20.21875 18.242188 C 20.21875 17.871094 20.21875 17.5 20.21875 17.132812 C 20.21875 15.597656 20.21875 14.0625 20.21875 12.527344 C 20.207031 12.5 20.191406 12.46875 20.179688 12.4375 C 20.125 12.3125 20.070312 12.191406 20.019531 12.066406 C 19.957031 11.925781 19.898438 11.785156 19.835938 11.644531 C 19.441406 10.726562 19.050781 9.808594 18.660156 8.886719 C 18.613281 8.777344 18.5625 8.640625 18.601562 8.546875 C 18.71875 8.273438 18.851562 8.007812 18.988281 7.742188 C 19.03125 7.65625 19.074219 7.570312 19.121094 7.480469 C 19.132812 7.484375 19.144531 7.484375 19.15625 7.488281 C 19.214844 7.496094 19.277344 7.503906 19.335938 7.511719 C 19.605469 8.730469 19.871094 9.945312 20.140625 11.164062 C 20.167969 11.285156 20.195312 11.40625 20.21875 11.523438 C 20.21875 10.566406 20.222656 9.609375 20.222656 8.652344 C 20.222656 7.710938 19.882812 6.90625 19.199219 6.257812 C 19.050781 6.113281 18.890625 5.976562 18.726562 5.839844 C 18.726562 5.859375 18.722656 5.878906 18.71875 5.894531 C 18.652344 6.367188 18.480469 6.90625 18.050781 7.390625 C 17.574219 6.28125 17.140625 5.265625 16.667969 4.164062 C 17.046875 4.015625 17.425781 3.867188 17.839844 3.703125 C 17.859375 3.507812 17.792969 3.304688 17.640625 3.109375 C 17.503906 2.929688 17.445312 2.742188 17.472656 2.527344 C 17.480469 2.460938 17.488281 2.390625 17.496094 2.324219 C 17.511719 2.183594 17.527344 2.042969 17.546875 1.902344 C 16.992188 2.089844 16.476562 2.261719 15.890625 2.457031 C 15.816406 2.296875 15.746094 2.140625 15.671875 1.988281 C 15.503906 1.628906 15.34375 1.285156 15.195312 0.9375 C 14.914062 0.902344 14.632812 0.875 14.351562 0.855469 C 14.074219 0.832031 13.796875 0.816406 13.519531 0.804688 C 13.484375 0.855469 13.441406 0.902344 13.382812 0.953125 C 13.042969 1.246094 12.695312 1.53125 12.335938 1.808594 C 11.667969 2.316406 10.992188 2.820312 10.316406 3.316406 C 10.214844 3.390625 10.105469 3.457031 9.984375 3.527344 C 9.921875 3.5625 9.855469 3.601562 9.789062 3.644531 C 9.757812 3.582031 9.726562 3.523438 9.699219 3.472656 C 9.65625 3.382812 9.617188 3.304688 9.582031 3.226562 C 9.527344 3.09375 9.472656 2.960938 9.414062 2.808594 C 9.386719 2.730469 9.351562 2.648438 9.316406 2.558594 C 10.308594 1.960938 11.296875 1.363281 12.285156 0.769531 C 12.027344 0.765625 11.773438 0.761719 11.515625 0.757812 C 10.59375 0.75 9.671875 0.765625 8.75 0.785156 C 8.683594 0.832031 8.617188 0.878906 8.550781 0.925781 C 8.527344 0.878906 8.507812 0.832031 8.488281 0.789062 Z M 3.464844 1.585938 C 3.9375 1.390625 4.410156 1.203125 4.886719 1.015625 C 4.5625 1.058594 4.242188 1.117188 3.921875 1.183594 C 3.691406 1.234375 3.515625 1.382812 3.464844 1.585938 Z M 9.652344 6.863281 C 9.570312 6.878906 9.511719 6.890625 9.460938 6.910156 C 9.070312 7.054688 8.671875 7.199219 8.277344 7.34375 C 7.269531 7.710938 6.257812 8.078125 5.277344 8.5 C 4.714844 8.742188 4.316406 9.183594 3.90625 9.640625 C 3.804688 9.75 3.703125 9.863281 3.601562 9.972656 C 6.695312 10.054688 9.386719 11.167969 12.078125 12.28125 C 12.15625 12.316406 12.238281 12.347656 12.316406 12.382812 C 12.328125 12.367188 12.34375 12.355469 12.355469 12.339844 C 12.375 12.320312 12.394531 12.300781 12.414062 12.28125 C 12.144531 11.710938 11.875 11.140625 11.605469 10.570312 C 11.019531 9.328125 10.429688 8.085938 9.835938 6.828125 C 9.761719 6.84375 9.703125 6.855469 9.652344 6.863281 Z M 10.421875 4.460938 C 11.828125 3.949219 13.234375 3.4375 14.6875 2.90625 C 14.589844 2.6875 14.496094 2.480469 14.40625 2.277344 C 14.292969 2.023438 14.183594 1.777344 14.066406 1.515625 C 13.242188 2.140625 12.453125 2.742188 11.675781 3.332031 C 11.226562 3.671875 10.785156 4.007812 10.34375 4.34375 C 10.363281 4.371094 10.378906 4.394531 10.394531 4.421875 C 10.40625 4.4375 10.414062 4.449219 10.421875 4.460938 Z M 15.894531 13.558594 L 15.605469 14.058594 C 16.167969 14.378906 16.726562 14.703125 17.285156 15.027344 C 18.023438 15.453125 18.765625 15.878906 19.515625 16.316406 C 19.664062 16.179688 19.800781 16.054688 19.957031 15.910156 C 20.015625 15.855469 20.078125 15.796875 20.144531 15.738281 C 19.769531 14.816406 19.394531 13.90625 19.023438 13 C 18.652344 12.101562 18.289062 11.210938 17.921875 10.3125 L 17.917969 10.3125 C 17.863281 10.316406 17.808594 10.320312 17.753906 10.324219 C 17.136719 11.394531 16.523438 12.464844 15.894531 13.558594 Z M 15.558594 15.578125 C 15.53125 15.597656 15.503906 15.617188 15.476562 15.636719 C 15.65625 16.007812 15.839844 16.375 16.019531 16.742188 C 16.175781 17.0625 16.332031 17.382812 16.492188 17.703125 C 16.589844 17.683594 16.6875 17.664062 16.785156 17.644531 C 17.371094 17.523438 17.890625 17.421875 18.414062 17.316406 C 18.425781 17.273438 18.4375 17.226562 18.453125 17.183594 L 18.457031 17.171875 C 18.140625 16.992188 17.828125 16.808594 17.511719 16.628906 C 16.882812 16.261719 16.25 15.898438 15.621094 15.535156 C 15.601562 15.546875 15.582031 15.5625 15.558594 15.578125 Z M 13.640625 17.035156 C 13.316406 17.5 12.984375 17.980469 12.621094 18.503906 C 13.5625 18.359375 14.34375 18.226562 15.136719 17.933594 C 15.003906 17.65625 14.875 17.390625 14.75 17.132812 C 14.617188 16.851562 14.484375 16.578125 14.351562 16.304688 C 14.292969 16.292969 14.234375 16.28125 14.179688 16.269531 L 14.171875 16.269531 C 13.996094 16.523438 13.820312 16.777344 13.640625 17.035156 Z M 10.972656 22.144531 C 11.085938 22.273438 11.199219 22.40625 11.324219 22.550781 C 11.730469 22.273438 12.132812 22 12.53125 21.726562 C 13.535156 21.042969 14.523438 20.371094 15.503906 19.6875 C 15.894531 19.414062 15.871094 19.382812 15.511719 18.9375 L 15.503906 18.929688 C 15.289062 18.976562 15.074219 19.023438 14.859375 19.070312 C 13.855469 19.292969 12.839844 19.519531 11.824219 19.753906 C 11.722656 19.777344 11.605469 19.839844 11.542969 19.914062 C 11.246094 20.289062 10.953125 20.675781 10.660156 21.058594 C 10.5625 21.1875 10.464844 21.3125 10.367188 21.441406 C 10.574219 21.679688 10.765625 21.90625 10.972656 22.144531 Z M 11.847656 25.675781 C 11.46875 25.078125 11.121094 24.527344 10.738281 23.921875 C 10.203125 24.1875 9.683594 24.449219 9.171875 24.710938 C 8.242188 25.175781 7.339844 25.632812 6.417969 26.09375 C 6.480469 26.15625 6.535156 26.214844 6.589844 26.269531 C 6.710938 26.390625 6.8125 26.496094 6.902344 26.609375 C 7.148438 26.914062 7.421875 26.964844 7.835938 26.832031 C 8.519531 26.617188 9.210938 26.429688 9.90625 26.242188 C 10.234375 26.152344 10.5625 26.0625 10.890625 25.96875 C 11.097656 25.910156 11.300781 25.84375 11.527344 25.773438 C 11.628906 25.742188 11.734375 25.710938 11.847656 25.675781 Z M 9.734375 20.25 C 9.621094 20.285156 9.5 20.320312 9.359375 20.363281 L 9.375 20.378906 C 9.523438 20.515625 9.609375 20.59375 9.730469 20.707031 C 9.789062 20.644531 9.839844 20.585938 9.890625 20.53125 C 9.972656 20.445312 10.042969 20.363281 10.117188 20.28125 C 10.078125 20.246094 10.042969 20.207031 10.003906 20.167969 C 9.917969 20.195312 9.828125 20.21875 9.734375 20.25 Z M 8.304688 24.105469 C 8.757812 23.867188 9.210938 23.632812 9.761719 23.347656 C 9.546875 23.214844 9.386719 23.113281 9.226562 23.007812 C 9.1875 22.984375 9.148438 22.960938 9.109375 22.9375 C 9.007812 23.050781 8.914062 23.164062 8.820312 23.269531 C 8.597656 23.527344 8.390625 23.769531 8.183594 24.007812 C 8.210938 24.03125 8.238281 24.050781 8.265625 24.074219 C 8.28125 24.085938 8.292969 24.09375 8.304688 24.105469 Z M 2.945312 17.476562 C 2.339844 17.308594 1.722656 17.207031 1.046875 17.425781 C 1.066406 17.460938 1.082031 17.488281 1.09375 17.503906 C 1.109375 17.535156 1.117188 17.546875 1.125 17.550781 C 1.285156 17.621094 1.445312 17.691406 1.601562 17.765625 C 3.167969 18.464844 4.730469 19.164062 6.296875 19.851562 C 6.367188 19.882812 6.460938 19.875 6.570312 19.867188 C 6.625 19.863281 6.6875 19.859375 6.75 19.859375 C 5.984375 19.027344 3.964844 17.761719 2.945312 17.476562 Z M 2.351562 22.019531 C 3.484375 23.15625 4.554688 24.226562 5.695312 25.371094 C 5.796875 25.261719 5.902344 25.15625 6.003906 25.046875 C 6.824219 24.183594 7.605469 23.363281 8.320312 22.433594 C 8.125 22.320312 7.929688 22.210938 7.742188 22.105469 C 7.332031 21.875 6.941406 21.65625 6.5625 21.425781 C 6.160156 21.179688 5.777344 21.109375 5.292969 21.257812 C 4.828125 21.398438 4.347656 21.507812 3.871094 21.617188 C 3.621094 21.675781 3.375 21.730469 3.125 21.792969 C 2.972656 21.832031 2.824219 21.875 2.652344 21.929688 C 2.558594 21.957031 2.460938 21.984375 2.351562 22.019531 Z M 16.792969 26.300781 C 17.25 26.109375 17.695312 25.921875 18.085938 25.644531 C 18.050781 25.648438 18.011719 25.652344 17.976562 25.652344 C 17.160156 25.707031 16.359375 25.757812 15.574219 26.023438 C 15.785156 26.222656 15.949219 26.378906 16.160156 26.578125 C 16.371094 26.480469 16.585938 26.390625 16.792969 26.300781 Z M 14.355469 25.035156 C 14.441406 25.101562 14.613281 25.121094 14.734375 25.101562 C 15.636719 24.949219 16.539062 24.792969 17.476562 24.628906 C 17.765625 24.578125 18.054688 24.527344 18.351562 24.472656 C 18.074219 23.910156 17.800781 23.351562 17.527344 22.796875 C 17.113281 21.964844 16.703125 21.132812 16.289062 20.289062 C 16.058594 20.445312 15.828125 20.601562 15.601562 20.757812 C 14.371094 21.585938 13.183594 22.386719 11.960938 23.214844 C 12.1875 23.390625 12.414062 23.5625 12.636719 23.734375 C 13.214844 24.179688 13.78125 24.609375 14.355469 25.035156 Z M 15.820312 5.402344 C 15.710938 5.148438 15.597656 4.890625 15.484375 4.628906 C 14.125 5.019531 12.890625 5.523438 11.621094 6.042969 C 11.414062 6.128906 11.207031 6.210938 10.996094 6.296875 C 11.078125 6.480469 11.152344 6.652344 11.226562 6.816406 C 11.375 7.144531 11.507812 7.449219 11.652344 7.753906 C 11.785156 8.042969 11.921875 8.332031 12.058594 8.625 C 12.65625 9.898438 13.253906 11.175781 13.871094 12.441406 C 13.894531 12.488281 13.917969 12.535156 13.9375 12.582031 C 14.109375 12.945312 14.289062 13.320312 14.675781 13.578125 C 14.707031 13.554688 14.738281 13.53125 14.761719 13.515625 C 14.8125 13.480469 14.847656 13.457031 14.863281 13.421875 C 15.011719 13.167969 15.160156 12.910156 15.3125 12.65625 C 15.964844 11.53125 16.621094 10.402344 17.246094 9.265625 C 17.355469 9.066406 17.3125 8.753906 17.226562 8.527344 C 17.101562 8.191406 16.941406 7.867188 16.785156 7.542969 C 16.691406 7.355469 16.601562 7.167969 16.515625 6.980469 C 16.285156 6.460938 16.058594 5.941406 15.820312 5.402344 Z M 15.820312 5.402344 "/>
<path style="fill:none;stroke-width:8;stroke-linecap:butt;stroke-linejoin:miter;stroke:rgb(0%,0%,0%);stroke-opacity:1;stroke-miterlimit:10;" d="M 3.997768 82.692522 C 3.997768 70.283482 4.017857 57.874442 3.997768 45.465402 C 3.997768 40.695871 5.745536 36.587054 9.060268 33.283482 C 11.270089 31.074219 13.801339 29.154018 16.272321 27.21317 C 18.120536 25.767857 18.5625 23.641183 17.136161 21.824219 C 16.03125 20.420201 15.970982 18.148996 17.075893 16.703683 C 17.879464 15.630022 18.160714 14.49442 18.020089 13.193638 C 17.879464 11.87221 17.779018 10.550781 17.71875 9.229353 C 17.678571 7.722098 18.703125 6.586496 20.169643 6.256138 C 27.883929 4.583705 35.738839 4.335938 43.59375 4.170759 C 48.816964 4.067522 54.020089 3.964286 59.223214 4.00558 C 64.084821 4.067522 68.966518 4.129464 73.808036 4.521763 C 78.529018 4.893415 83.209821 5.636719 87.890625 6.276786 C 89.477679 6.503906 90.522321 8.052455 90.301339 9.621652 C 90.140625 10.860491 90 12.09933 89.859375 13.358817 C 89.71875 14.49442 90.020089 15.485491 90.723214 16.435268 C 92.189732 18.355469 92.089286 20.378906 90.502232 22.237165 C 89.377232 23.558594 90.020089 25.871094 91.6875 27.171875 C 94.118304 29.071429 96.569196 30.950335 98.738839 33.077009 C 102.254464 36.504464 104.002232 40.757812 104.002232 45.733817 C 103.982143 70.634487 103.982143 95.535156 103.982143 120.415179 C 103.982143 129.768415 97.453125 138.21317 88.493304 140.381138 C 85.921875 141.000558 83.290179 141.310268 80.658482 141.661272 C 77.765625 142.053571 74.872768 142.363281 71.959821 142.611049 C 69.308036 142.83817 66.65625 143.003348 64.004464 143.085938 C 60.227679 143.209821 56.470982 143.313058 52.714286 143.271763 C 47.229911 143.209821 41.745536 143.251116 36.301339 142.75558 C 30.616071 142.260045 24.910714 141.516741 19.345982 140.257254 C 12.234375 138.646763 7.674107 133.81529 5.162946 127.063616 C 4.299107 124.730469 3.997768 122.273438 3.997768 119.795759 C 4.017857 107.428013 3.997768 95.060268 3.997768 82.692522 Z M 3.997768 82.692522 " transform="matrix(0.194444,0,0,0.189189,0,0)"/>
</g>
</svg>
