<?xml version="1.0" encoding="UTF-8" standalone="no"?>
<svg
   xmlns:dc="http://purl.org/dc/elements/1.1/"
   xmlns:cc="http://creativecommons.org/ns#"
   xmlns:rdf="http://www.w3.org/1999/02/22-rdf-syntax-ns#"
   xmlns:svg="http://www.w3.org/2000/svg"
   xmlns="http://www.w3.org/2000/svg"
   viewBox="0 0 898.66669 301.33334"
   height="301.33334"
   width="898.66669"
   xml:space="preserve"
   id="svg2"
   version="1.1"><metadata
     id="metadata8"><rdf:RDF><cc:Work
         rdf:about=""><dc:format>image/svg+xml</dc:format><dc:type
           rdf:resource="http://purl.org/dc/dcmitype/StillImage" /></cc:Work></rdf:RDF></metadata><defs
     id="defs6"><clipPath
       id="clipPath24"
       clipPathUnits="userSpaceOnUse"><path
         id="path22"
         d="M 0,226 H 674 V 0 H 0 Z" /></clipPath></defs><g
     transform="matrix(1.3333333,0,0,-1.3333333,0,301.33333)"
     id="g10"><g
       transform="translate(218.167,124.958)"
       id="g12"><path
         id="path14"
         style="fill:#ffffff;fill-opacity:1;fill-rule:nonzero;stroke:none"
         d="M 0,0 H -0.212 L -9.524,-52.698 H -19.789 L -3.492,30.476 23.915,-32.381 51.322,30.476 67.619,-52.698 H 57.354 L 48.042,0 H 47.831 L 23.915,-54.392 Z" /></g><path
       id="path16"
       style="fill:#ffffff;fill-opacity:1;fill-rule:nonzero;stroke:none"
       d="m 304.302,72.26 h -9.947 v 79.788 h 9.947 z" /><g
       id="g18"><g
         clip-path="url(#clipPath24)"
         id="g20"><g
           transform="translate(354.6719,136.916)"
           id="g26"><path
             id="path28"
             style="fill:#ffffff;fill-opacity:1;fill-rule:nonzero;stroke:none"
             d="m 0,0 c -2.965,4.973 -6.773,7.513 -12.805,7.513 -6.349,0 -13.333,-4.339 -13.333,-11.323 0,-6.244 6.138,-9.524 11.111,-11.428 l 5.714,-2.223 c 11.323,-4.444 19.788,-10.687 19.788,-24.02 0,-14.498 -11.217,-24.869 -25.502,-24.869 -12.91,0 -22.963,9.525 -24.656,22.329 l 10.053,2.116 c -0.106,-8.783 6.878,-15.132 15.449,-15.132 8.572,0 14.708,7.195 14.708,15.556 0,8.571 -6.877,12.274 -13.756,15.131 l -5.502,2.329 c -9.1,3.915 -17.354,9.1 -17.354,20.211 0,12.91 11.428,20.635 23.491,20.635 8.889,0 16.192,-4.339 20.53,-12.063 z" /></g><g
           transform="translate(397.5254,72.2598)"
           id="g30"><path
             id="path32"
             style="fill:#ffffff;fill-opacity:1;fill-rule:nonzero;stroke:none"
             d="m 0,0 h -9.947 v 70.688 h -18.942 v 9.1 h 47.83 v -9.1 H 0 Z" /></g><g
           transform="translate(434.2441,114.5879)"
           id="g34"><path
             id="path36"
             style="fill:#ffffff;fill-opacity:1;fill-rule:nonzero;stroke:none"
             d="m 0,0 h 3.174 c 10.158,0 21.164,1.904 21.164,14.603 0,12.487 -11.852,13.968 -21.693,13.968 L 0,28.571 Z M 0,-42.328 H -9.947 V 37.46 H 1.48 c 24.551,0 32.17,-8.466 32.17,-23.068 C 33.65,-2.435 20.846,-8.889 5.713,-8.889 H 0 Z" /></g><g
           transform="translate(486.623,81.3604)"
           id="g38"><path
             id="path40"
             style="fill:#ffffff;fill-opacity:1;fill-rule:nonzero;stroke:none"
             d="M 0,0 H 24.232 V -9.101 H -9.947 V 70.688 H 0 Z" /></g><g
           transform="translate(547.0449,133.6348)"
           id="g42"><path
             id="path44"
             style="fill:#ffffff;fill-opacity:1;fill-rule:nonzero;stroke:none"
             d="m 0,0 -14.18,-32.274 h 28.36 z m -18.307,-41.375 -9.101,-20 H -38.096 L 0,21.799 38.096,-61.375 h -10.69 l -9.099,20 z" /></g><g
           transform="translate(572.9687,152.0479)"
           id="g46"><path
             id="path48"
             style="fill:#ffffff;fill-opacity:1;fill-rule:nonzero;stroke:none"
             d="M 0,0 H 11.428 L 31.006,-34.074 50.582,0 H 62.01 L 35.979,-45.079 v -34.709 h -9.948 v 34.709 z" /></g><g
           transform="translate(165.6597,113)"
           id="g50"><path
             id="path52"
             style="fill:#000000;fill-opacity:1;fill-rule:nonzero;stroke:none"
             d="m 0,0 c 0,-34.971 -28.349,-63.319 -63.319,-63.319 -34.971,0 -63.32,28.348 -63.32,63.319 0,34.97 28.349,63.319 63.32,63.319 C -28.349,63.319 0,34.97 0,0" /></g><g
           transform="translate(97.251,77.4541)"
           id="g54"><path
             id="path56"
             style="fill:#5ae1c0;fill-opacity:1;fill-rule:nonzero;stroke:none"
             d="m 0,0 c 5.344,0 9.675,4.486 9.675,10.021 0,5.535 -4.331,10.021 -9.675,10.021 -5.344,0 -9.675,-4.486 -9.675,-10.021 C -9.675,4.486 -5.344,0 0,0" /></g><g
           transform="translate(77.3291,129.3237)"
           id="g58"><path
             id="path60"
             style="fill:#5ae1c0;fill-opacity:1;fill-rule:nonzero;stroke:none"
             d="M 0,0 C 3.144,0 5.692,2.639 5.692,5.895 5.692,9.15 3.144,11.79 0,11.79 -3.143,11.79 -5.691,9.15 -5.691,5.895 -5.691,2.639 -3.143,0 0,0" /></g><g
           transform="translate(131.9678,116.3594)"
           id="g62"><path
             id="path64"
             style="fill:#5ae1c0;fill-opacity:1;fill-rule:nonzero;stroke:none"
             d="M 0,0 C 3.145,0 5.692,2.64 5.692,5.895 5.692,9.15 3.145,11.79 0,11.79 -3.143,11.79 -5.691,9.15 -5.691,5.895 -5.691,2.64 -3.143,0 0,0" /></g><g
           transform="translate(98.957,111.6436)"
           id="g66"><path
             id="path68"
             style="fill:#5ae1c0;fill-opacity:1;fill-rule:nonzero;stroke:none"
             d="m 0,0 c 4.401,0 7.968,3.695 7.968,8.253 0,4.558 -3.567,8.252 -7.968,8.252 -4.4,0 -7.968,-3.694 -7.968,-8.252 C -7.968,3.695 -4.4,0 0,0" /></g><g
           transform="translate(117.1719,131.6851)"
           id="g70"><path
             id="path72"
             style="fill:#5ae1c0;fill-opacity:1;fill-rule:nonzero;stroke:none"
             d="M 0,0 C 3.143,0 5.691,2.639 5.691,5.895 5.691,9.15 3.143,11.79 0,11.79 -3.145,11.79 -5.692,9.15 -5.692,5.895 -5.692,2.639 -3.145,0 0,0" /></g><g
           transform="translate(117.7407,98.6729)"
           id="g74"><path
             id="path76"
             style="fill:#5ae1c0;fill-opacity:1;fill-rule:nonzero;stroke:none"
             d="m 0,0 c 3.458,0 6.261,2.904 6.261,6.484 0,3.582 -2.803,6.485 -6.261,6.485 -3.458,0 -6.261,-2.903 -6.261,-6.485 C -6.261,2.904 -3.458,0 0,0" /></g></g></g></g></svg>