<svg height="512" viewBox="0 0 64 64" width="512" xmlns="http://www.w3.org/2000/svg"><g id="Social_network" data-name="Social network"><path d="m48 23h2v2h-2z"/><path d="m59 16a3.009 3.009 0 0 0 3-3v-8a3.009 3.009 0 0 0 -3-3h-18a3.009 3.009 0 0 0 -3 3v8a3.014 3.014 0 0 0 2 2.83v3.17h-16v-3.17a3.014 3.014 0 0 0 2-2.83v-8a3.009 3.009 0 0 0 -3-3h-18a3.009 3.009 0 0 0 -3 3v8a3.009 3.009 0 0 0 3 3h11.5l2.25 3h-5.75a3.009 3.009 0 0 0 -3 3v4.71l-5.76 6.63a1.07 1.07 0 0 0 -.24.66v20h-1a1 1 0 0 0 -1 1v6a1 1 0 0 0 1 1h16a1 1 0 0 0 1-1v-6a1 1 0 0 0 -1-1h-2.11a6.97 6.97 0 0 0 2.11-5v-4h26v4a6.97 6.97 0 0 0 2.11 5h-2.11a1 1 0 0 0 -1 1v6a1 1 0 0 0 1 1h16a1 1 0 0 0 1-1v-6a1 1 0 0 0 -1-1h-1v-20a1.07 1.07 0 0 0 -.24-.66l-5.76-6.63v-4.71a3.009 3.009 0 0 0 -3-3h-5.75l2.25-3zm-41.2-1.6a1.014 1.014 0 0 0 -.8-.4h-12a1 1 0 0 1 -1-1v-8a1 1 0 0 1 1-1h18a1 1 0 0 1 1 1v8a1 1 0 0 1 -1 1 1 1 0 0 0 -1 1v5zm-5.8 11.88 1.25.31a1 1 0 0 1 .75.97v3.58c-.05.05-.12.08-.17.13l-1.83 1.84zm6 29.72v4h-14v-4zm-1-7a5 5 0 0 1 -5 5h-6v-19.63l4-4.61v5.76a.987.987 0 0 0 .62.92 1 1 0 0 0 1.09-.21l3.54-3.54a2.029 2.029 0 0 1 2.82 0 1.98 1.98 0 0 1 0 2.82l-4.37 4.37a3 3 0 0 0 2.13 5.12h1.17zm43 7v4h-14v-4zm-6.62-19.56a.987.987 0 0 0 .62-.92v-5.76l4 4.61v19.63h-6a5 5 0 0 1 -5-5v-4h1.17a3 3 0 0 0 2.13-5.12l-4.37-4.37a1.992 1.992 0 0 1 0-2.82 2.029 2.029 0 0 1 2.82 0l3.54 3.54a1 1 0 0 0 1.09.21zm-2.38-15.44a1 1 0 0 1 1 1v11.11l-1.83-1.84a1.923 1.923 0 0 0 -.17-.13v-4.14h-2v3.16a4.906 4.906 0 0 0 -.66-.06 4.065 4.065 0 0 0 -2.83 1.17 4.008 4.008 0 0 0 0 5.66l4.37 4.37a.965.965 0 0 1 .22 1.08.985.985 0 0 1 -.93.62h-32.34a.985.985 0 0 1 -.93-.62.965.965 0 0 1 .22-1.08l4.37-4.37a4 4 0 0 0 1.17-2.83 3.938 3.938 0 0 0 -4.66-3.9v-2.64a2.986 2.986 0 0 0 -2.27-2.91l-1.73-.43v-2.22a1 1 0 0 1 1-1h7.25l1.95 2.6a.985.985 0 0 0 .8.4 1.185 1.185 0 0 0 .32-.05 1.014 1.014 0 0 0 .68-.95v-2h16v2a1.014 1.014 0 0 0 .68.95 1.185 1.185 0 0 0 .32.05.985.985 0 0 0 .8-.4l1.95-2.6zm-4.8-6.6-4.2 5.6v-5a1 1 0 0 0 -1-1 1 1 0 0 1 -1-1v-8a1 1 0 0 1 1-1h18a1 1 0 0 1 1 1v8a1 1 0 0 1 -1 1h-12a1.014 1.014 0 0 0 -.8.4z"/><path d="m6 6h2v2h-2z"/><path d="m10 6h12v2h-12z"/><path d="m6 10h16v2h-16z"/><path d="m42 6h2v2h-2z"/><path d="m46 6h12v2h-12z"/><path d="m42 10h16v2h-16z"/></g></svg>