<svg id="Capa_1" enable-background="new 0 0 512 512" height="512" viewBox="0 0 512 512" width="512" xmlns="http://www.w3.org/2000/svg"><g><g><path d="m441.87 127.044c4.143 0 7.5-3.358 7.5-7.5v-112.044c0-4.142-3.357-7.5-7.5-7.5h-371.74c-4.143 0-7.5 3.358-7.5 7.5v497c0 4.142 3.357 7.5 7.5 7.5h371.74c4.143 0 7.5-3.358 7.5-7.5v-349.946c0-4.142-3.357-7.5-7.5-7.5s-7.5 3.358-7.5 7.5v342.446h-356.74v-482h356.74v104.544c0 4.143 3.358 7.5 7.5 7.5z"/><path d="m102.455 390.737c-4.143 0-7.5 3.358-7.5 7.5v73.938c0 4.142 3.357 7.5 7.5 7.5h307.09c4.143 0 7.5-3.358 7.5-7.5v-432.35c0-4.142-3.357-7.5-7.5-7.5h-307.09c-4.143 0-7.5 3.358-7.5 7.5v323.389c0 4.142 3.357 7.5 7.5 7.5s7.5-3.358 7.5-7.5v-315.889h292.09v417.35h-292.09v-66.438c0-4.142-3.357-7.5-7.5-7.5z"/><path d="m345.646 157.931c-4.902-12.359-12.131-23.369-21.485-32.722-9.356-9.356-20.365-16.585-32.723-21.485-3.851-1.527-8.21.356-9.736 4.207-1.527 3.851.356 8.21 4.207 9.737 10.443 4.142 19.744 10.248 27.646 18.149 7.899 7.898 14.005 17.2 18.148 27.646 1.167 2.943 3.989 4.737 6.974 4.737.92 0 1.856-.17 2.764-.53 3.849-1.529 5.733-5.889 4.205-9.739z"/><path d="m226.091 269.073c-10.444-4.142-19.745-10.248-27.646-18.149-7.899-7.898-14.005-17.2-18.148-27.645-1.526-3.85-5.886-5.733-9.737-4.207-3.85 1.527-5.733 5.887-4.206 9.737 4.902 12.359 12.131 23.368 21.485 32.722 9.355 9.355 20.365 16.584 32.723 21.485.907.36 1.843.53 2.763.53 2.984 0 5.807-1.794 6.974-4.737 1.526-3.85-.358-8.209-4.208-9.736z"/><path d="m384.72 193.37c0-70.976-57.743-128.72-128.72-128.72s-128.72 57.744-128.72 128.72 57.743 128.719 128.72 128.719 128.72-57.743 128.72-128.719zm-128.72 113.719c-62.705 0-113.72-51.014-113.72-113.719s51.015-113.72 113.72-113.72 113.72 51.015 113.72 113.72-51.015 113.719-113.72 113.719z"/><path d="m256 165.667c-15.275 0-27.703 12.428-27.703 27.704 0 15.275 12.428 27.703 27.703 27.703s27.703-12.428 27.703-27.703c0-15.277-12.428-27.704-27.703-27.704zm0 40.406c-7.005 0-12.703-5.699-12.703-12.703 0-7.005 5.698-12.704 12.703-12.704s12.703 5.699 12.703 12.704-5.698 12.703-12.703 12.703z"/><path d="m256 133.341c-33.1 0-60.028 26.929-60.028 60.029s26.929 60.028 60.028 60.028 60.028-26.929 60.028-60.028c0-33.1-26.928-60.029-60.028-60.029zm0 105.057c-24.829 0-45.028-20.2-45.028-45.028 0-24.829 20.199-45.029 45.028-45.029s45.028 20.2 45.028 45.029-20.199 45.028-45.028 45.028z"/><path d="m210.114 394.392c0 4.142 3.357 7.5 7.5 7.5h76.771c4.143 0 7.5-3.358 7.5-7.5s-3.357-7.5-7.5-7.5h-76.771c-4.142 0-7.5 3.358-7.5 7.5z"/><path d="m219.904 346.486h-24.514c-9.705 0-17.602 7.896-17.602 17.602v60.61c0 9.706 7.896 17.602 17.602 17.602h121.219c9.705 0 17.602-7.896 17.602-17.602v-60.61c0-9.706-7.896-17.602-17.602-17.602h-61.681c-4.143 0-7.5 3.358-7.5 7.5s3.357 7.5 7.5 7.5h61.681c1.435 0 2.602 1.167 2.602 2.602v60.61c0 1.435-1.167 2.602-2.602 2.602h-121.218c-1.435 0-2.602-1.167-2.602-2.602v-60.61c0-1.435 1.167-2.602 2.602-2.602h24.514c4.143 0 7.5-3.358 7.5-7.5s-3.358-7.5-7.501-7.5z"/></g></g></svg>