<svg width="600" height="151" viewBox="0 0 600 151" fill="none" xmlns="http://www.w3.org/2000/svg">
<path d="M232.38 38.0997C217.838 38.3906 212.312 45.6615 205.623 54.3867V53.2233C205.623 45.3707 199.515 38.6814 191.953 38.0997H191.081C182.356 38.0997 175.666 45.0799 175.666 53.5142V134.658C175.666 143.383 182.647 150.073 191.081 150.073C199.806 150.073 206.495 143.092 206.495 134.658V104.12C207.077 84.9247 206.205 66.3111 234.707 66.3111C241.105 66.3111 246.34 61.076 246.34 52.9325C246.631 44.4982 241.396 38.3906 232.38 38.0997Z" fill="#58595B"/>
<path d="M145.128 38.9724C136.985 38.9724 132.332 44.2075 130.296 50.606L113.427 105.865L96.2676 51.1876C93.9409 43.9167 88.4149 38.9724 80.5623 38.9724H78.8173C70.9646 38.9724 65.4387 43.9167 63.112 51.1876L46.2433 105.865L29.6655 50.8968C27.3388 43.9167 22.3946 38.9724 14.8328 38.9724C5.81678 38.9724 0 45.9525 0 52.9327C0 55.5502 0.872516 58.4586 1.45419 60.4945L27.9205 136.694C31.1197 146.292 37.5182 150.364 44.7892 150.364H45.6617C53.2235 150.364 59.3311 146.001 62.2395 137.276L79.6898 82.889L96.5584 137.276C99.4668 146.292 105.574 150.364 113.136 150.364H114.009C121.571 150.364 127.678 146.001 130.877 136.694L158.216 59.3311C158.507 57.8769 159.089 54.9685 159.089 52.9327C159.38 45.6617 153.563 38.9724 145.128 38.9724Z" fill="#58595B"/>
<path d="M321.958 38.3905C306.544 38.3905 297.237 46.534 290.257 55.8408V54.6775C290.257 46.2431 283.277 39.263 274.842 39.263C266.408 39.263 259.428 46.2431 259.428 54.6775V134.658C259.428 143.092 266.408 150.073 274.842 150.073C283.277 150.073 290.257 143.092 290.257 134.658V88.1239C290.257 73.582 297.819 66.0202 309.452 66.0202C321.086 66.0202 328.066 73.582 328.066 88.1239V134.367C328.066 142.802 335.046 149.782 343.48 149.782C351.915 149.782 358.895 142.802 358.895 134.367V78.5262C358.604 53.5141 345.225 38.3905 321.958 38.3905Z" fill="#58595B"/>
<path d="M563.063 38.3907C547.649 38.3907 538.342 46.5342 531.362 55.841V15.4144C531.362 6.98013 524.382 0 515.948 0C507.513 0 500.533 6.98013 500.533 15.4144V134.367C500.533 142.802 507.513 149.782 515.948 149.782C524.382 149.782 531.362 142.802 531.362 134.367V88.1241C531.362 73.5822 538.924 66.0204 550.557 66.0204C562.191 66.0204 569.171 73.5822 569.171 88.1241V134.367C569.171 142.802 576.151 149.782 584.585 149.782C593.02 149.782 600 142.802 600 134.367V78.5264C599.709 53.8051 586.33 38.3907 563.063 38.3907Z" fill="#58595B"/>
<path d="M465.342 113.718C465.051 113.718 464.76 113.718 464.178 113.718L436.84 129.423L406.883 111.973L407.174 77.363L419.68 70.3829C419.68 70.3829 429.569 64.8569 428.696 65.1478L437.421 60.2035L460.979 73.8729C461.852 74.1638 463.015 74.1638 463.888 74.1638C471.449 74.1638 477.848 68.0562 477.848 60.4944C477.848 55.2593 474.939 51.4784 472.903 50.0242C463.887 42.4624 452.254 37.809 435.967 37.809C402.811 37.809 379.253 63.1119 379.253 94.2316V94.5225C379.253 125.351 403.102 150.363 435.676 150.363C453.417 150.363 465.051 144.838 474.067 136.403C476.684 134.077 478.429 130.877 478.429 126.806C478.429 119.535 472.613 113.718 465.342 113.718Z" fill="#58595B"/>
<path d="M419.389 84.6339L419.098 104.993L436.839 115.463L454.581 105.283V84.9248L437.13 74.4546L419.389 84.6339Z" fill="#26A9E0"/>
</svg>
